<!-- icon666.com - MILLIONS vector ICONS FREE --><svg viewBox="0 0 55 23.54" xmlns="http://www.w3.org/2000/svg"><g id="Layer_2" data-name="Layer 2"><g id="Dumbell"><path d="m49.9 8.54v-5.54h-6.34v-3h-8.33v8.54h-15.55v-8.54h-8.34v3h-6.34v5.54h-5v6.46h5v5.6h6.34v2.94h8.34v-8.54h15.55v8.52h8.33v-2.91h6.34v-5.61h5.1v-6.46zm-44.9 4.46h-3v-2.46h3zm6.34 5.58h-4.34v-13.58h4.34zm6.34 2.94h-4.34v-19.52h4.34zm17.55-8.52h-15.55v-2.46h15.55zm6.33 8.49h-4.33v-19.49h4.33zm6.34-2.89h-4.34v-13.6h4.34zm5.1-5.6h-3.1v-2.46h3.1z"></path><path d="m49.9 10.54h3.1v2.48h-3.1z" fill="#e4e6ec"></path><path d="m43.56 4.97h4.34v13.63h-4.34z" fill="#e4e6ec"></path><path d="m19.68 10.54h15.55v2.48h-15.55z" fill="#8d93a7"></path><g fill="#e4e6ec"><path d="m37.23 2.03h4.33v19.48h-4.33z"></path><path d="m13.34 2.03h4.34v19.51h-4.34z"></path><path d="m7 4.96h4.34v13.64h-4.34z"></path><path d="m2 10.54h3v2.48h-3z"></path></g></g></g></svg>